<?xml version="1.0" encoding="utf-8"?>
<!-- Generator: Adobe Illustrator 23.0.3, SVG Export Plug-In . SVG Version: 6.00 Build 0)  -->
<svg version="1.1" id="Layer_1" xmlns="http://www.w3.org/2000/svg" xmlns:xlink="http://www.w3.org/1999/xlink" x="0px" y="0px"
	 viewBox="0 0 200 120" style="enable-background:new 0 0 200 120;" xml:space="preserve">
<style type="text/css">
	.st0{fill:#6D6E71;}
	.st1{fill:#7EBA6A;}
</style>
<g>
	<path class="st0" d="M114.31,60.67h3.93v13.49c1.23-3.62,4.19-14.78,18.64-14.78c10.81,0,16.77,7.02,18.33,15.82
		c0,0,4.66-16.06,19.68-15.82c12.63,0.2,20.2,9.6,20.11,23.13v34.79h-3.93V83.48c-0.13-9.82-3.87-20.15-16.19-20.16
		c-13.46-0.02-18.13,18.11-18.13,25.98l-0.08,28.01h-3.93V83.48c-0.13-9.82-4.3-20.15-15.87-20.16
		c-14.3-0.02-18.45,18.63-18.64,26.48v27.51h-3.93V60.67z"/>
	<g>
		<g>
			<path class="st1" d="M77.59,11.89c0,5.12-3.07,7.94-5.63,7.94c-2.77,0-5.63-2.82-5.63-7.94s5.63-10.6,5.63-10.6
				S77.59,6.77,77.59,11.89z"/>
			<path class="st1" d="M59.11,20.96c2.94,4.19,2.04,8.27-0.06,9.74c-2.27,1.59-6.23,0.92-9.17-3.27S48.41,15.5,48.41,15.5
				S56.17,16.76,59.11,20.96z"/>
			<path class="st1" d="M94.03,27.42c-2.94,4.19-7.07,4.74-9.17,3.27c-2.27-1.59-3-5.54-0.06-9.74c2.94-4.19,10.7-5.45,10.7-5.45
				S96.97,23.23,94.03,27.42z"/>
			<path class="st1" d="M99.92,48.13c-4.43,2.56-8.41,1.31-9.69-0.91c-1.38-2.4-0.38-6.29,4.06-8.85c4.43-2.56,12-0.42,12-0.42
				S104.35,45.57,99.92,48.13z"/>
			<path class="st1" d="M49.63,38.37c4.43,2.56,5.34,6.63,4.06,8.85c-1.38,2.4-5.26,3.47-9.69,0.91
				c-4.43-2.56-6.37-10.18-6.37-10.18S45.2,35.81,49.63,38.37z"/>
		</g>
		<path class="st0" d="M69.54,33.15h4.31v80.17h34.09v3.98h-38.4V33.15z"/>
	</g>
	<path class="st0" d="M9.39,88.16v0.68c0,16.74,12.11,25.82,24.11,25.47c10.78-0.32,17.65-7.46,17.65-7.46l2.7,4.05
		c0,0-7.69,7.8-20.36,7.8C18.12,118.7,5,107.28,5,88.73c0-19.34,12.33-29.29,26.58-29.29c14.93,0,22.99,11.45,23.19,24.43v4.29H9.39
		z M9.62,83.77h40.75c-0.72-14.22-9.21-20.03-19.02-19.93C21.95,63.93,11.23,70,9.62,83.77z"/>
</g>
</svg>
