<?xml version="1.0" encoding="utf-8"?>
<!-- Generator: Adobe Illustrator 23.0.6, SVG Export Plug-In . SVG Version: 6.00 Build 0)  -->
<svg version="1.1" id="Layer_1" xmlns="http://www.w3.org/2000/svg" xmlns:xlink="http://www.w3.org/1999/xlink" x="0px" y="0px"
	 viewBox="0 0 607.32 597" style="enable-background:new 0 0 607.32 597;" xml:space="preserve">
<style type="text/css">
	.st0{fill:#8CC540;}
	.st1{fill:#80BC00;}
	.st2{fill:#003B71;}
</style>
<g>
	<path class="st0" d="M534.65,296.7c2.09,4.64,4.06,9.27,6.03,14.02C538.7,306.09,536.73,301.34,534.65,296.7L534.65,296.7z"/>
	<path class="st0" d="M515.52,256.6c1.51,2.9,3.13,5.91,4.64,8.92C518.54,262.51,517.03,259.5,515.52,256.6L515.52,256.6z"/>
	<path class="st0" d="M522.24,270.05c1.51,3.01,3.01,6.14,4.4,9.27C525.26,276.19,523.75,273.06,522.24,270.05L522.24,270.05z"/>
	<path class="st0" d="M528.62,283.26c1.97,4.29,3.94,8.58,5.91,12.98C532.56,291.95,530.59,287.66,528.62,283.26L528.62,283.26z"/>
	<path class="st0" d="M542.06,314.09c1.51,3.59,2.9,7.19,4.4,10.78C544.96,321.39,543.57,317.8,542.06,314.09L542.06,314.09z"/>
	<path class="st0" d="M548.09,329.04c1.39,3.59,2.78,7.3,4.17,10.89C550.87,336.34,549.48,332.63,548.09,329.04L548.09,329.04z"/>
	<path class="st0" d="M488.4,210.59c2.9,4.29,5.56,8.69,8.34,12.98C494.08,219.28,491.3,214.88,488.4,210.59L488.4,210.59z"/>
	<path class="st0" d="M114.28,224.03c0.81-1.27,1.62-2.55,2.43-3.82C115.9,221.48,115.09,222.76,114.28,224.03L114.28,224.03z"/>
	<path class="st0" d="M434.39,137.92c7.07,8.58,14.02,17.27,20.86,26.19C448.42,155.19,441.46,146.5,434.39,137.92L434.39,137.92z"
		/>
	<path class="st0" d="M506.71,240.26c2.32,4.06,4.52,8.11,6.72,12.29C511.23,248.37,508.92,244.32,506.71,240.26L506.71,240.26z"/>
	<path class="st0" d="M103.96,241.54c-0.12,0.23-0.23,0.46-0.46,0.7c2.09-3.82,4.4-7.53,6.61-11.36
		C108.02,234.47,105.93,237.94,103.96,241.54L103.96,241.54z"/>
	<path class="st0" d="M457.57,167.13c3.36,4.4,6.72,8.81,9.97,13.33C464.18,175.94,460.93,171.53,457.57,167.13L457.57,167.13z"/>
	<path class="st0" d="M498.83,227.05c2.78,4.4,5.33,8.92,7.88,13.33C504.16,235.86,501.5,231.45,498.83,227.05L498.83,227.05z"/>
	<path class="st0" d="M89.24,269.47c1.85-3.71,3.71-7.42,5.56-11.01C92.95,262.05,90.98,265.76,89.24,269.47L89.24,269.47z"/>
	<path class="st0" d="M467.54,180.57c3.13,4.29,6.26,8.69,9.27,12.98C473.8,189.26,470.79,184.86,467.54,180.57L467.54,180.57z"/>
	<path class="st0" d="M479.25,197.03c3.01,4.4,6.14,8.81,9.04,13.33C485.39,205.84,482.26,201.43,479.25,197.03L479.25,197.03z"/>
	<path class="st0" d="M102.22,244.66c-1.85,3.36-3.82,6.84-5.56,10.32C98.4,251.5,100.37,248.03,102.22,244.66L102.22,244.66z"/>
	<path class="st1" d="M209.32,416.08c1.04-4.87,15.18-56.68,34.89-91.33c19.24-34.07,56.33-73.71,61.2-78.23l0.23-0.35
		c0,0,0,0,0.12,0.12c0,0,0,0,0-0.12v-0.12l0,0c6.95-7.42,118.8-93.53,126.91-110.34C377.37,68.61,319.19,13.44,307.37,2.43L305.98,0
		c0,0-0.12,0.12-0.23,0.23l-0.12-0.12l-0.23,0.46c-0.12-0.12-0.23-0.23-0.23-0.23l-0.7,1.16c-10.43,9.74-71.16,67.45-128.19,137.23
		C173.85,147.42,140.82,272.6,209.32,416.08L209.32,416.08z"/>
	<path class="st1" d="M306.32,246.87c5.56,5.22,42.54,43.69,61.54,77.31c20.17,35.58,33.96,90.05,34.42,92.26l0.12,0.12h-0.12
		c0,0-55.52,15.65-96.66,15.65c-38.71,0-90.05-13.68-95.97-15.53h-0.58l0.12-0.12h-0.12l0.12-0.23v-0.12l-0.35,0.7c0,0,0,0,0.12,0
		l0,0c0.12,0,0.12,0,0.12,0c0.12,0,0.46,0.12,0.46,0.12h-0.46c0,0,0,0,0-0.12h-0.12l0,0c-5.79-1.51-86.35-23.06-157.86-54.94
		c10.78-30.71,23.3-62.01,37.2-90.75C34.65,381.31,2.55,528.5,0.35,538.7L0,539.4c0,0,0.23,0.12,0.35,0.12L0,539.98h1.85
		c17.15,5.45,155.65,48.68,272.94,55.86c-30.71-1.97-62.7-6.37-93.65-11.94c0,0,128.88-30.13,220.67-166.78h0.81c0,0,0,0,0-0.12l0,0
		v-0.12l0,0c-0.12-0.23-0.12-0.46-0.12-0.46l0.23,0.46h-0.12l0,0v0.12c2.32,8,15.07,127.72,26.31,167.59
		c105.82-19.01,178.37-44.27,178.37-44.27s-18.08-101.99-53.89-197.15c1.74,4.64,3.48,9.39,5.22,14.14
		C558.64,357.32,468.35,258.92,306.32,246.87L306.32,246.87z"/>
	<path class="st2" d="M305.74,246.17L305.74,246.17c0.12,0,0.12,0,0.12,0l0.46,0.81c162.03,12.05,252.43,110.45,252.43,110.45
		c-1.74-4.75-3.48-9.39-5.22-14.14c-0.35-1.16-0.81-2.2-1.27-3.36c-1.39-3.59-2.78-7.3-4.17-10.89c-0.46-1.39-1.04-2.67-1.62-4.06
		c-1.51-3.59-2.9-7.19-4.4-10.78c-0.46-1.16-0.93-2.2-1.39-3.36c-1.97-4.75-3.94-9.39-6.03-14.02c0-0.12-0.12-0.23-0.23-0.46
		c-1.97-4.4-3.82-8.69-5.91-12.98c-0.58-1.39-1.27-2.67-1.85-4.06c-1.51-3.13-2.9-6.26-4.4-9.27c-0.7-1.51-1.51-3.01-2.2-4.52
		c-1.51-3.01-3.01-6.03-4.64-8.92c-0.7-1.27-1.27-2.67-2.09-3.94c-2.2-4.17-4.4-8.34-6.72-12.29c-2.55-4.4-5.22-8.81-7.88-13.33
		c-0.7-1.16-1.39-2.32-2.09-3.36c-2.67-4.4-5.45-8.69-8.34-12.98c0-0.12-0.12-0.23-0.12-0.35c-2.9-4.4-5.91-8.81-9.04-13.33
		c-0.81-1.16-1.62-2.32-2.43-3.48c-3.01-4.4-6.03-8.69-9.27-12.98c0-0.12-0.12-0.12-0.12-0.23c-3.25-4.4-6.49-8.92-9.97-13.33
		c-0.81-1.04-1.51-2.09-2.32-3.01c-6.84-8.92-13.79-17.62-20.86-26.19c-0.58-0.7-1.16-1.39-1.74-2.09
		C344.34,198.65,312.7,238.64,305.74,246.17L305.74,246.17z"/>
	<path class="st2" d="M402.64,417.12L402.64,417.12l-0.81,0.12C310.15,554,181.15,584.14,181.15,584.14
		c30.95,5.56,63.05,9.97,93.65,11.94c0.93,0.12,1.85,0.12,2.78,0.12c8.69,0.46,17.27,0.81,25.61,0.81c1.04,0,2.09,0,3.13,0
		c39.64,0,83.33-5.33,125.06-12.75C428.13,538.24,417.24,466.38,402.64,417.12L402.64,417.12L402.64,417.12z"/>
	<path class="st2" d="M94.81,258.46c-1.85,3.71-3.71,7.3-5.56,11.01c-0.23,0.58-0.58,1.16-0.81,1.62
		c-13.91,28.74-26.43,60.04-37.2,90.75c71.63,31.99,152.06,53.55,157.97,54.94l0,0h-0.12l0.35-0.7v-0.12
		c-68.5-143.48-35.47-268.54-33.03-277.35c-21.33,26.08-42.07,53.89-59.57,81.48c-0.81,1.27-1.62,2.55-2.43,3.82
		c-1.39,2.32-2.78,4.52-4.17,6.84c-2.32,3.82-4.52,7.65-6.61,11.36c-0.46,0.81-0.81,1.62-1.27,2.43c-1.97,3.48-3.94,6.95-5.68,10.43
		C95.96,256.14,95.39,257.3,94.81,258.46L94.81,258.46z"/>
</g>
</svg>
