<?xml version="1.0" encoding="utf-8"?>
<!-- Generator: Adobe Illustrator 23.0.6, SVG Export Plug-In . SVG Version: 6.00 Build 0)  -->
<svg version="1.1" id="Layer_1" xmlns="http://www.w3.org/2000/svg" xmlns:xlink="http://www.w3.org/1999/xlink" x="0px" y="0px"
	 viewBox="0 0 252.9 66.1" style="enable-background:new 0 0 252.9 66.1;" xml:space="preserve">
<style type="text/css">
	.st0{fill:#1B4073;}
	.st1{fill:#8CC540;}
	.st2{fill:#80BC00;}
	.st3{fill:#003B71;}
</style>
<g>
	<g>
		<g>
			<path class="st0" d="M112.5,3.1c4,2,7,4.9,9.2,8.7s3.3,8.3,3.3,13.6c0,5.1-1.1,9.7-3.3,13.6c-2.2,4-5.4,7-9.4,9.2
				c-4,2.2-8.6,3.3-13.7,3.3c-5.3,0-9.9-1-13.8-3c-4-2-7-4.9-9.2-8.7s-3.3-8.3-3.3-13.6c0-5.1,1.1-9.7,3.3-13.6c2.2-4,5.4-7,9.4-9.2
				s8.6-3.3,13.7-3.3C103.9,0.1,108.5,1.1,112.5,3.1z M92.3,4.4c-1.8,2.1-3.1,5-4,8.7s-1.4,8-1.4,12.8c0,4.9,0.5,9.1,1.6,12.8
				s2.5,6.5,4.3,8.5c1.8,2,3.8,3,6,3c2.3,0,4.3-1,6-3.1c1.8-2.1,3.1-5,4-8.7c0.9-3.7,1.4-8,1.4-12.8c0-4.8-0.5-9.1-1.6-12.8
				s-2.5-6.5-4.3-8.5s-3.8-3-6-3C96.1,1.3,94.1,2.4,92.3,4.4z"/>
			<path class="st0" d="M169.6,7.1c4.8,4.1,7.3,10.1,7.3,17.9c0,5.1-1.1,9.5-3.4,13.3c-2.3,3.8-5.7,6.8-10.1,8.9
				c-4.4,2.1-9.7,3.2-15.8,3.2l-4.3,0c-2.8-0.1-4.9-0.1-6.1-0.1c-5.4,0-9.5,0.1-12.2,0.3l0-1.4c1.5-0.1,2.6-0.3,3.3-0.6
				c0.7-0.3,1.1-0.8,1.4-1.6c0.2-0.8,0.3-2.1,0.3-3.8l-0.2-34.7c0-1.8-0.1-3.1-0.4-3.8c-0.3-0.8-0.7-1.3-1.4-1.6s-1.7-0.5-3.2-0.5
				l0-1.4c2.1,0.1,5.3,0.2,9.5,0.1l2.5,0l3.1-0.1c3.9-0.1,6.6-0.2,8.2-0.2C157.6,1,164.8,3,169.6,7.1z M145.7,2.8
				c-0.7,0.3-1.2,0.9-1.5,1.8s-0.4,2.1-0.4,3.8l0.2,34.9c0,1.7,0.2,2.9,0.4,3.8s0.8,1.4,1.5,1.7c0.7,0.3,1.8,0.5,3.3,0.5
				c4.6,0,7.9-2,9.9-6c2-4,3-9.9,3-17.8c-0.1-7.9-1.1-13.7-3.3-17.5c-2.1-3.8-5.5-5.7-10-5.6C147.5,2.3,146.4,2.5,145.7,2.8z"/>
			<path class="st0" d="M201,2.5c-1.5,0.1-2.6,0.3-3.3,0.6s-1.1,0.8-1.4,1.6S196,6.7,196,8.5v34.7c0,1.8,0.1,3,0.4,3.8
				c0.3,0.8,0.7,1.3,1.4,1.6s1.7,0.5,3.2,0.6v1.4c-2.7-0.1-6.6-0.2-11.7-0.2c-5.6,0-9.8,0.1-12.4,0.2v-1.4c1.5-0.1,2.6-0.3,3.3-0.6
				c0.7-0.3,1.1-0.8,1.4-1.6c0.2-0.8,0.4-2.1,0.4-3.8V8.5c0-1.8-0.1-3.1-0.4-3.8c-0.3-0.8-0.7-1.3-1.4-1.6s-1.7-0.5-3.2-0.6V1
				c2.6,0.1,6.8,0.2,12.4,0.2c5,0,8.9-0.1,11.7-0.2V2.5z"/>
			<path class="st0" d="M251.4,2.5c-1.4,0.3-2.5,0.8-3.2,1.5c-0.7,0.7-1.2,1.7-1.4,3.1c-0.2,1.4-0.4,3.5-0.4,6.3v37.2
				c-0.9-0.1-1.7-0.1-2.3-0.1c-0.5,0-1.4,0-2.6,0.1l-30.9-33.8v20.1c0,3.5,0.1,5.9,0.4,7.4s0.9,2.6,1.9,3.3c0.9,0.7,2.6,1.2,4.8,1.5
				v1.4c-1.9-0.1-4.5-0.2-7.8-0.2c-2.5,0-4.4,0.1-5.8,0.2v-1.4c1.4-0.3,2.5-0.8,3.2-1.5c0.7-0.7,1.2-1.7,1.4-3.1
				c0.2-1.4,0.4-3.5,0.4-6.3V8.5c0-1.8-0.1-3.1-0.4-3.8c-0.3-0.8-0.7-1.3-1.4-1.6s-1.7-0.5-3.2-0.6V1c1.4,0.1,3.3,0.2,5.8,0.2
				c2.5,0,4.7-0.1,6.4-0.2l28.6,30.2V14.7c0-3.4-0.1-5.9-0.4-7.4s-0.9-2.6-1.9-3.3c-1-0.7-2.6-1.2-4.8-1.5V1
				c1.9,0.1,4.5,0.2,7.8,0.2c2.5,0,4.4-0.1,5.8-0.2L251.4,2.5L251.4,2.5z"/>
		</g>
	</g>
	<g>
		<path class="st1" d="M54.7,25.6c0.2,0.4,0.3,0.8,0.5,1.2C55,26.4,54.8,26,54.7,25.6L54.7,25.6z"/>
		<path class="st1" d="M53,22.1c0.1,0.3,0.3,0.5,0.4,0.8C53.3,22.6,53.2,22.4,53,22.1L53,22.1z"/>
		<path class="st1" d="M53.6,23.3c0.1,0.3,0.3,0.5,0.4,0.8C53.9,23.8,53.7,23.6,53.6,23.3L53.6,23.3z"/>
		<path class="st1" d="M54.2,24.4c0.2,0.4,0.3,0.7,0.5,1.1C54.5,25.2,54.3,24.8,54.2,24.4L54.2,24.4z"/>
		<path class="st1" d="M55.3,27.1c0.1,0.3,0.3,0.6,0.4,0.9C55.6,27.7,55.4,27.4,55.3,27.1L55.3,27.1z"/>
		<path class="st1" d="M55.8,28.4c0.1,0.3,0.2,0.6,0.4,0.9C56.1,29,56,28.7,55.8,28.4L55.8,28.4z"/>
		<path class="st1" d="M50.7,18.2c0.3,0.4,0.5,0.8,0.7,1.1C51.2,18.9,50.9,18.5,50.7,18.2L50.7,18.2z"/>
		<path class="st1" d="M18.4,19.3c0.1-0.1,0.1-0.2,0.2-0.3C18.5,19.1,18.5,19.2,18.4,19.3L18.4,19.3z"/>
		<path class="st1" d="M46,11.9c0.6,0.7,1.2,1.5,1.8,2.3C47.2,13.4,46.6,12.6,46,11.9L46,11.9z"/>
		<path class="st1" d="M52.3,20.7c0.2,0.4,0.4,0.7,0.6,1.1C52.7,21.4,52.5,21.1,52.3,20.7L52.3,20.7z"/>
		<path class="st1" d="M17.5,20.8C17.5,20.9,17.5,20.9,17.5,20.8c0.1-0.3,0.3-0.6,0.5-0.9C17.9,20.2,17.7,20.5,17.5,20.8L17.5,20.8z
			"/>
		<path class="st1" d="M48,14.4c0.3,0.4,0.6,0.8,0.9,1.1C48.6,15.2,48.3,14.8,48,14.4L48,14.4z"/>
		<path class="st1" d="M51.6,19.6c0.2,0.4,0.5,0.8,0.7,1.1C52,20.4,51.8,20,51.6,19.6L51.6,19.6z"/>
		<path class="st1" d="M16.2,23.3c0.2-0.3,0.3-0.6,0.5-1C16.6,22.6,16.4,22.9,16.2,23.3L16.2,23.3z"/>
		<path class="st1" d="M48.9,15.6c0.3,0.4,0.5,0.8,0.8,1.1C49.4,16.3,49.2,15.9,48.9,15.6L48.9,15.6z"/>
		<path class="st1" d="M49.9,17c0.3,0.4,0.5,0.8,0.8,1.1C50.4,17.8,50.2,17.4,49.9,17L49.9,17z"/>
		<path class="st1" d="M17.4,21.1c-0.2,0.3-0.3,0.6-0.5,0.9C17,21.7,17.2,21.4,17.4,21.1L17.4,21.1z"/>
		<path class="st2" d="M26.6,35.9c0.1-0.4,1.3-4.9,3-7.9c1.7-2.9,4.9-6.4,5.3-6.8l0,0c0,0,0,0,0,0c0,0,0,0,0,0v0l0,0
			c0.6-0.6,10.3-8.1,11-9.5C41.1,5.9,36.1,1.2,35.1,0.2L34.9,0c0,0,0,0,0,0l0,0l0,0c0,0,0,0,0,0l-0.1,0.1C33.9,1,28.7,6,23.7,12
			C23.5,12.7,20.7,23.5,26.6,35.9L26.6,35.9z"/>
		<path class="st2" d="M35,21.3c0.5,0.5,3.7,3.8,5.3,6.7c1.7,3.1,2.9,7.8,3,8l0,0h0c0,0-4.8,1.3-8.3,1.3c-3.3,0-7.8-1.2-8.3-1.3h0
			l0,0h0l0,0v0l0,0.1c0,0,0,0,0,0l0,0c0,0,0,0,0,0c0,0,0,0,0,0h0c0,0,0,0,0,0h0l0,0c-0.5-0.1-7.4-2-13.6-4.7c0.9-2.6,2-5.4,3.2-7.8
			c-4.6,9.5-7.4,22.2-7.6,23.1l0,0.1c0,0,0,0,0,0l0,0h0.2c1.5,0.5,13.4,4.2,23.5,4.8c-2.6-0.2-5.4-0.5-8.1-1c0,0,11.1-2.6,19-14.4
			h0.1c0,0,0,0,0,0l0,0v0l0,0c0,0,0,0,0,0l0,0h0l0,0v0c0.2,0.7,1.3,11,2.3,14.5c9.1-1.6,15.4-3.8,15.4-3.8s-1.6-8.8-4.7-17
			c0.2,0.4,0.3,0.8,0.5,1.2C56.7,30.8,49,22.3,35,21.3L35,21.3z"/>
		<path class="st3" d="M34.9,21.2L34.9,21.2C34.9,21.2,34.9,21.2,34.9,21.2L34.9,21.2c14,1.1,21.8,9.6,21.8,9.6
			c-0.2-0.4-0.3-0.8-0.5-1.2c0-0.1-0.1-0.2-0.1-0.3c-0.1-0.3-0.2-0.6-0.4-0.9c0-0.1-0.1-0.2-0.1-0.4c-0.1-0.3-0.3-0.6-0.4-0.9
			c0-0.1-0.1-0.2-0.1-0.3c-0.2-0.4-0.3-0.8-0.5-1.2c0,0,0,0,0,0c-0.2-0.4-0.3-0.8-0.5-1.1c0-0.1-0.1-0.2-0.2-0.4
			c-0.1-0.3-0.3-0.5-0.4-0.8c-0.1-0.1-0.1-0.3-0.2-0.4c-0.1-0.3-0.3-0.5-0.4-0.8c-0.1-0.1-0.1-0.2-0.2-0.3c-0.2-0.4-0.4-0.7-0.6-1.1
			c-0.2-0.4-0.5-0.8-0.7-1.1c-0.1-0.1-0.1-0.2-0.2-0.3c-0.2-0.4-0.5-0.8-0.7-1.1c0,0,0,0,0,0c-0.3-0.4-0.5-0.8-0.8-1.1
			c-0.1-0.1-0.1-0.2-0.2-0.3c-0.3-0.4-0.5-0.8-0.8-1.1c0,0,0,0,0,0c-0.3-0.4-0.6-0.8-0.9-1.1c-0.1-0.1-0.1-0.2-0.2-0.3
			c-0.6-0.8-1.2-1.5-1.8-2.3c0-0.1-0.1-0.1-0.2-0.2C38.3,17.1,35.5,20.6,34.9,21.2L34.9,21.2z"/>
		<path class="st3" d="M43.3,36L43.3,36L43.3,36c-8,11.8-19.1,14.4-19.1,14.4c2.7,0.5,5.4,0.9,8.1,1c0.1,0,0.2,0,0.2,0
			c0.8,0,1.5,0.1,2.2,0.1c0.1,0,0.2,0,0.3,0c3.4,0,7.2-0.5,10.8-1.1C45.5,46.4,44.5,40.2,43.3,36L43.3,36L43.3,36z"/>
		<path class="st3" d="M16.7,22.3c-0.2,0.3-0.3,0.6-0.5,1c0,0,0,0.1-0.1,0.1c-1.2,2.5-2.3,5.2-3.2,7.8c6.2,2.8,13.1,4.6,13.6,4.7
			l0,0h0l0-0.1v0c-5.9-12.4-3.1-23.2-2.9-23.9c-1.8,2.3-3.6,4.6-5.1,7c-0.1,0.1-0.1,0.2-0.2,0.3c-0.1,0.2-0.2,0.4-0.4,0.6
			c-0.2,0.3-0.4,0.7-0.6,1c0,0.1-0.1,0.1-0.1,0.2c-0.2,0.3-0.3,0.6-0.5,0.9C16.8,22.1,16.8,22.2,16.7,22.3L16.7,22.3z"/>
	</g>
	<g>
		<path class="st0" d="M2.7,62.5C2,62.2,1.5,61.7,1.1,61c-0.4-0.6-0.6-1.3-0.6-2.1s0.2-1.5,0.6-2.1c0.4-0.6,0.9-1.1,1.5-1.5
			s1.4-0.5,2.2-0.5c0.8,0,1.5,0.2,2.2,0.5s1.2,0.9,1.5,1.5s0.6,1.3,0.6,2.1c0,0.8-0.2,1.5-0.6,2.1c-0.4,0.6-0.9,1.1-1.6,1.5
			s-1.4,0.5-2.2,0.5C4.1,63.1,3.3,62.9,2.7,62.5z M6.5,61.6C7,61.4,7.4,61,7.6,60.5c0.3-0.5,0.4-1,0.4-1.6s-0.1-1.1-0.4-1.6
			c-0.3-0.5-0.7-0.8-1.1-1.1s-1-0.4-1.6-0.4s-1.1,0.1-1.6,0.4c-0.5,0.3-0.9,0.7-1.1,1.1c-0.3,0.5-0.4,1-0.4,1.6s0.1,1.1,0.4,1.6
			c0.3,0.5,0.7,0.8,1.1,1.1s1,0.4,1.6,0.4C5.5,62,6,61.9,6.5,61.6z"/>
		<path class="st0" d="M17.9,54.8V63h-1L12,56.9V63h-1.2v-8.2h0.9l4.9,6.1v-6.1C16.7,54.8,17.9,54.8,17.9,54.8z"/>
		<path class="st0" d="M20.1,54.8h1.2V62h4.4v1h-5.6L20.1,54.8L20.1,54.8z"/>
		<path class="st0" d="M26.9,54.8H28V63h-1.2V54.8z"/>
		<path class="st0" d="M37.3,54.8V63h-1l-4.9-6.1V63h-1.2v-8.2h1l4.9,6.1v-6.1C36.2,54.8,37.3,54.8,37.3,54.8z"/>
		<path class="st0" d="M45.5,62v1h-5.9v-8.2h5.8v1h-4.6v2.5h4.1v1h-4.1V62L45.5,62L45.5,62z"/>
		<path class="st0" d="M50.2,54.8h3.4c0.9,0,1.6,0.2,2.3,0.5c0.7,0.3,1.2,0.8,1.5,1.4c0.4,0.6,0.5,1.3,0.5,2.1s-0.2,1.5-0.5,2.1
			s-0.9,1.1-1.5,1.4c-0.7,0.3-1.4,0.5-2.3,0.5h-3.4V54.8z M53.6,62c0.7,0,1.2-0.1,1.7-0.4c0.5-0.3,0.9-0.6,1.2-1.1
			c0.3-0.5,0.4-1,0.4-1.6s-0.1-1.1-0.4-1.6s-0.7-0.8-1.2-1.1c-0.5-0.3-1.1-0.4-1.7-0.4h-2.2V62C51.4,62,53.6,62,53.6,62z"/>
		<path class="st0" d="M64.8,61h-4.3l-0.9,2h-1.2l3.7-8.1h1.2l3.7,8.2h-1.2L64.8,61z M64.4,60l-1.8-4l-1.8,4H64.4z"/>
		<path class="st0" d="M70.6,59.4l-1.5,1.5V63h-1.2v-8.2h1.2v4.5l4.4-4.5h1.3l-3.5,3.7l3.7,4.5h-1.4L70.6,59.4z"/>
		<path class="st0" d="M77.3,62.5c-0.7-0.4-1.2-0.9-1.6-1.5c-0.4-0.6-0.6-1.3-0.6-2.1s0.2-1.5,0.6-2.1c0.4-0.6,0.9-1.1,1.6-1.5
			s1.4-0.5,2.2-0.5c0.8,0,1.6,0.2,2.2,0.5c0.7,0.4,1.2,0.9,1.6,1.5s0.6,1.3,0.6,2.1c0,0.8-0.2,1.5-0.6,2.1c-0.4,0.6-0.9,1.1-1.6,1.5
			s-1.4,0.5-2.2,0.5C78.7,63.1,78,62.9,77.3,62.5z M81.1,61.6c0.5-0.3,0.8-0.7,1.1-1.1c0.3-0.5,0.4-1,0.4-1.6s-0.1-1.1-0.4-1.6
			c-0.3-0.5-0.7-0.8-1.1-1.1c-0.5-0.3-1-0.4-1.6-0.4s-1.1,0.1-1.6,0.4c-0.5,0.3-0.9,0.7-1.1,1.1c-0.3,0.5-0.4,1-0.4,1.6
			s0.1,1.1,0.4,1.6c0.3,0.5,0.7,0.8,1.1,1.1c0.5,0.3,1,0.4,1.6,0.4C80.1,62,80.7,61.9,81.1,61.6z"/>
		<path class="st0" d="M87,55.8h-2.8v-1h6.7v1h-2.8V63H87L87,55.8L87,55.8z"/>
		<path class="st0" d="M96.8,61h-4.3l-0.9,2h-1.2l3.7-8.1h1.2l3.7,8.2h-1.2L96.8,61z M96.4,60l-1.8-4l-1.8,4H96.4z"/>
		<path class="st0" d="M102.9,54.8h1.2V63h-1.2V54.8z"/>
		<path class="st0" d="M113.4,54.8V63h-1l-4.9-6.1V63h-1.2v-8.2h0.9l4.9,6.1v-6.1C112.2,54.8,113.4,54.8,113.4,54.8z"/>
		<path class="st0" d="M116.8,55.8v2.8h4.1v1h-4.1V63h-1.2v-8.2h5.8v1C121.4,55.8,116.8,55.8,116.8,55.8z"/>
		<path class="st0" d="M124.3,62.5c-0.7-0.4-1.2-0.9-1.6-1.5c-0.4-0.6-0.6-1.3-0.6-2.1s0.2-1.5,0.6-2.1c0.4-0.6,0.9-1.1,1.6-1.5
			s1.4-0.5,2.2-0.5c0.8,0,1.6,0.2,2.2,0.5s1.2,0.9,1.6,1.5s0.6,1.3,0.6,2.1c0,0.8-0.2,1.5-0.6,2.1c-0.4,0.6-0.9,1.1-1.6,1.5
			s-1.4,0.5-2.2,0.5C125.7,63.1,124.9,62.9,124.3,62.5z M128.1,61.6c0.5-0.3,0.9-0.7,1.1-1.1c0.3-0.5,0.4-1,0.4-1.6
			s-0.1-1.1-0.4-1.6c-0.3-0.5-0.6-0.8-1.1-1.1c-0.5-0.3-1-0.4-1.6-0.4s-1.1,0.1-1.6,0.4c-0.5,0.3-0.9,0.7-1.1,1.1
			c-0.3,0.5-0.4,1-0.4,1.6s0.1,1.1,0.4,1.6c0.3,0.5,0.7,0.8,1.1,1.1c0.5,0.3,1,0.4,1.6,0.4C127.1,62,127.6,61.9,128.1,61.6z"/>
		<path class="st0" d="M137.9,63l-1.8-2.5c-0.2,0-0.4,0-0.5,0h-2V63h-1.2v-8.1h3.2c1.1,0,1.9,0.3,2.5,0.8c0.6,0.5,0.9,1.2,0.9,2.1
			c0,0.6-0.1,1.2-0.5,1.6s-0.8,0.8-1.3,1l1.9,2.7L137.9,63L137.9,63z M137.3,59c0.4-0.3,0.6-0.8,0.6-1.4s-0.2-1-0.6-1.4
			c-0.4-0.3-0.9-0.5-1.7-0.5h-2v3.7h2C136.3,59.5,136.9,59.4,137.3,59z"/>
		<path class="st0" d="M148.3,63l0-5.9l-3,4.9h-0.5l-2.9-4.9V63h-1.1v-8.1h1l3.4,5.7l3.4-5.7h1l0,8.2C149.4,63,148.3,63,148.3,63z"
			/>
		<path class="st0" d="M156.9,61h-4.3l-0.9,2h-1.2l3.7-8.1h1.1L159,63h-1.2L156.9,61z M156.5,60l-1.8-4l-1.8,4H156.5z"/>
		<path class="st0" d="M161.3,55.8h-2.8v-1h6.7v1h-2.8V63h-1.1L161.3,55.8L161.3,55.8z"/>
		<path class="st0" d="M166.3,54.8h1.2V63h-1.2V54.8z"/>
		<path class="st0" d="M171.2,62.5c-0.7-0.4-1.2-0.9-1.6-1.5c-0.4-0.6-0.6-1.3-0.6-2.1s0.2-1.5,0.6-2.1c0.4-0.6,0.9-1.1,1.6-1.5
			s1.4-0.5,2.2-0.5c0.8,0,1.6,0.2,2.2,0.5s1.2,0.9,1.6,1.5c0.4,0.6,0.6,1.3,0.6,2.1c0,0.8-0.2,1.5-0.6,2.1c-0.4,0.6-0.9,1.1-1.6,1.5
			s-1.4,0.5-2.2,0.5C172.6,63.1,171.9,62.9,171.2,62.5z M175.1,61.6c0.5-0.3,0.9-0.7,1.1-1.1s0.4-1,0.4-1.6s-0.1-1.1-0.4-1.6
			s-0.6-0.8-1.1-1.1c-0.5-0.3-1-0.4-1.6-0.4s-1.1,0.1-1.6,0.4c-0.5,0.3-0.9,0.7-1.1,1.1s-0.4,1-0.4,1.6s0.1,1.1,0.4,1.6
			s0.7,0.8,1.1,1.1c0.5,0.3,1,0.4,1.6,0.4S174.6,61.9,175.1,61.6z"/>
		<path class="st0" d="M186.4,54.8V63h-1l-4.9-6.1V63h-1.2v-8.2h1l4.9,6.1v-6.1C185.2,54.8,186.4,54.8,186.4,54.8z"/>
		<path class="st0" d="M198.7,54.8V63h-1l-4.9-6.1V63h-1.2v-8.2h1l4.9,6.1v-6.1C197.5,54.8,198.7,54.8,198.7,54.8z"/>
		<path class="st0" d="M206.9,62v1h-5.9v-8.2h5.8v1h-4.6v2.5h4.1v1h-4.1V62L206.9,62L206.9,62z"/>
		<path class="st0" d="M210.2,55.8h-2.8v-1h6.7v1h-2.8V63h-1.1L210.2,55.8L210.2,55.8z"/>
		<path class="st0" d="M226.7,54.8l-2.7,8.1h-1.2l-2.2-6.5l-2.2,6.5H217l-2.7-8.2h1.2l2.2,6.6l2.3-6.6h1.1l2.3,6.7l2.3-6.7
			C225.6,54.8,226.7,54.8,226.7,54.8z"/>
		<path class="st0" d="M229.3,62.5c-0.7-0.4-1.2-0.9-1.6-1.5c-0.4-0.6-0.6-1.3-0.6-2.1s0.2-1.5,0.6-2.1c0.4-0.6,0.9-1.1,1.6-1.5
			s1.4-0.5,2.2-0.5c0.8,0,1.6,0.2,2.2,0.5s1.2,0.9,1.6,1.5c0.4,0.6,0.6,1.3,0.6,2.1c0,0.8-0.2,1.5-0.6,2.1c-0.4,0.6-0.9,1.1-1.6,1.5
			s-1.4,0.5-2.2,0.5C230.7,63.1,230,62.9,229.3,62.5z M233.1,61.6c0.5-0.3,0.9-0.7,1.1-1.1s0.4-1,0.4-1.6s-0.1-1.1-0.4-1.6
			s-0.6-0.8-1.1-1.1c-0.5-0.3-1-0.4-1.6-0.4s-1.1,0.1-1.6,0.4c-0.5,0.3-0.9,0.7-1.1,1.1s-0.4,1-0.4,1.6s0.1,1.1,0.4,1.6
			s0.7,0.8,1.1,1.1c0.5,0.3,1,0.4,1.6,0.4S232.7,61.9,233.1,61.6z"/>
		<path class="st0" d="M242.9,63l-1.8-2.5c-0.2,0-0.4,0-0.5,0h-2V63h-1.2v-8.1h3.2c1.1,0,1.9,0.3,2.5,0.8c0.6,0.5,0.9,1.2,0.9,2.1
			c0,0.6-0.2,1.2-0.5,1.6s-0.8,0.8-1.3,1l1.9,2.7L242.9,63L242.9,63z M242.3,59c0.4-0.3,0.6-0.8,0.6-1.4s-0.2-1-0.6-1.4
			c-0.4-0.3-0.9-0.5-1.7-0.5h-2v3.7h2C241.4,59.5,241.9,59.4,242.3,59z"/>
		<path class="st0" d="M248.4,59.4l-1.5,1.5V63h-1.2v-8.2h1.2v4.5l4.4-4.5h1.3l-3.5,3.7l3.7,4.5h-1.4L248.4,59.4z"/>
	</g>
</g>
</svg>
